# xmcd
#
# Track frame offsets:
# 150
# 12373
# 34663
# 45418
# 67540
# 86750
# 104340
# 125053
# 144485
# 167530
# 190533
# 213448
# 234798
# 250358
# 272008
#
# Disc length: 4424 seconds
#
#
# Revision: 0
# Processed by: cddbd v1.5.1PL2 Copyright (c) Steve Scherf et al.
# Submitted via: FreeRIP 2.945 
#
DISCID=bf11460f
DTITLE=EROS RAMAZZOTTI - LIVE
DYEAR=1998
DGENRE=Pop
TTITLE0=Io amerò
TTITLE1=Un'altra te
TTITLE2=Solo con te
TTITLE3=L'uragano Meri
TTITLE4=Cuori agitati
TTITLE5=Un cuore con le ali
TTITLE6=That's All I Need to Know - Difenderò - Duetto con Joe Cocker
TTITLE7=Cuanto amore me das
TTITLE8=Lei però
TTITLE9=Stella Gemella
TTITLE10=Cosas de la Vida (Can't Stop Thinking of You)
TTITLE11=La cosa mas bella
TTITLE12=Adesso tu
TTITLE13=Dove c'è musica
TTITLE14=Senza perderci di vista
EXTD=
EXTT0=
EXTT1=
EXTT2=
EXTT3=
EXTT4=
EXTT5=
EXTT6=Duetto con Joe Cocker
EXTT7=
EXTT8=
EXTT9=
EXTT10=Duetto con Tina Turner
EXTT11=
EXTT12=
EXTT13=
EXTT14=
PLAYORDER=
